<?xml version="1.0" encoding="utf-8"?>
<!-- Generator: Adobe Illustrator 20.1.0, SVG Export Plug-In . SVG Version: 6.00 Build 0)  -->
<svg version="1.1" xmlns="http://www.w3.org/2000/svg" xmlns:xlink="http://www.w3.org/1999/xlink" x="0px" y="0px"
	 viewBox="0 0 341.2 186" style="enable-background:new 0 0 341.2 186;" xml:space="preserve">
<style type="text/css">
	.st0{clip-path:url(#SVGID_2_);fill:none;stroke:#D9D9D9;stroke-linejoin:round;stroke-miterlimit:10;}
	.st1{clip-path:url(#SVGID_4_);fill:none;stroke:#D9D9D9;stroke-linejoin:round;stroke-miterlimit:10;}
	
		.st2{clip-path:url(#SVGID_6_);fill:none;stroke:#444BFF;stroke-width:2;stroke-linecap:round;stroke-linejoin:round;stroke-miterlimit:10;}
	
		.st3{clip-path:url(#SVGID_8_);fill:none;stroke:#FA0092;stroke-width:2;stroke-linecap:round;stroke-linejoin:round;stroke-miterlimit:10;}
	.st4{clip-path:url(#SVGID_10_);}
	.st5{fill:#595959;}
	.st6{font-family:'ArialMT';}
	.st7{font-size:9px;}
	.st8{clip-path:url(#SVGID_12_);}
	.st9{clip-path:url(#SVGID_14_);}
	.st10{clip-path:url(#SVGID_16_);}
	.st11{clip-path:url(#SVGID_18_);}
	.st12{clip-path:url(#SVGID_20_);}
	.st13{clip-path:url(#SVGID_22_);}
	.st14{clip-path:url(#SVGID_24_);}
	.st15{clip-path:url(#SVGID_26_);}
	.st16{clip-path:url(#SVGID_28_);}
	.st17{clip-path:url(#SVGID_30_);}
	.st18{clip-path:url(#SVGID_32_);}
	.st19{clip-path:url(#SVGID_34_);}
	.st20{clip-path:url(#SVGID_36_);}
	.st21{clip-path:url(#SVGID_38_);}
	.st22{clip-path:url(#SVGID_40_);}
	.st23{clip-path:url(#SVGID_42_);}
	.st24{clip-path:url(#SVGID_44_);}
	.st25{clip-path:url(#SVGID_46_);}
	.st26{clip-path:url(#SVGID_48_);}
	.st27{clip-path:url(#SVGID_50_);}
	.st28{font-size:14px;}
	
		.st29{clip-path:url(#SVGID_52_);fill:none;stroke:#444BFF;stroke-width:2;stroke-linecap:round;stroke-linejoin:round;stroke-miterlimit:10;}
	.st30{clip-path:url(#SVGID_54_);}
	
		.st31{clip-path:url(#SVGID_56_);fill:none;stroke:#FA0092;stroke-width:2;stroke-linecap:round;stroke-linejoin:round;stroke-miterlimit:10;}
	.st32{clip-path:url(#SVGID_58_);}
	.st33{clip-path:url(#SVGID_60_);fill:none;stroke:#D9D9D9;stroke-linejoin:round;stroke-miterlimit:10;}
	.st34{display:none;}
</style>
<g id="Layer_1">
	<g>
		<defs>
			<rect id="SVGID_1_" x="-0.5" y="-20" width="360" height="216"/>
		</defs>
		<clipPath id="SVGID_2_">
			<use xlink:href="#SVGID_1_"  style="overflow:visible;"/>
		</clipPath>
		<path class="st0" d="M347,21.5 M25,21.5 M347,35.5 M25,35.5 M347,49.5 M25,49.5 M347,62.5 M25,62.5 M347,76.5 M25,76.5 M347,90.5
			 M25,90.5 M347,104.5 M25,104.5 M347,118.5 M25,118.5 M347,132.5 M25,132.5"/>
	</g>
	<g>
		<defs>
			<rect id="SVGID_3_" x="-0.5" y="-20" width="360" height="216"/>
		</defs>
		<clipPath id="SVGID_4_">
			<use xlink:href="#SVGID_3_"  style="overflow:visible;"/>
		</clipPath>
		<path class="st1" d="M347,146.5"/>
		<path class="st1" d="M25,146.5"/>
	</g>
	<g>
		<defs>
			<polyline id="SVGID_5_" points="24.5,21 24.5,146 346.5,146 346.5,21 			"/>
		</defs>
		<clipPath id="SVGID_6_">
			<use xlink:href="#SVGID_5_"  style="overflow:visible;"/>
		</clipPath>
		<polyline class="st2" points="40.5,78 73.5,71 105.5,63 137.5,57 169.5,53 201.5,49 233.5,46 266.5,44 298.5,38 330.5,34 		"/>
	</g>
	<g>
		<defs>
			<polyline id="SVGID_7_" points="24.5,21 24.5,146 346.5,146 346.5,21 			"/>
		</defs>
		<clipPath id="SVGID_8_">
			<use xlink:href="#SVGID_7_"  style="overflow:visible;"/>
		</clipPath>
		<polyline class="st3" points="40.5,109 73.5,102 105.5,93 137.5,89 169.5,84 201.5,80 233.5,78 266.5,75 298.5,68 330.5,66 		"/>
	</g>
	<g>
		<defs>
			<rect id="SVGID_9_" x="-0.5" y="-20" width="360" height="216"/>
		</defs>
		<clipPath id="SVGID_10_">
			<use xlink:href="#SVGID_9_"  style="overflow:visible;"/>
		</clipPath>
		<g class="st4">
			<text transform="matrix(1 0 0 1 6.505 149.7722)" class="st5 st6 st7">36</text>
		</g>
	</g>
	<g>
		<defs>
			<rect id="SVGID_11_" x="-0.5" y="-20" width="360" height="216"/>
		</defs>
		<clipPath id="SVGID_12_">
			<use xlink:href="#SVGID_11_"  style="overflow:visible;"/>
		</clipPath>
		<g class="st8">
			<text transform="matrix(1 0 0 1 6.505 135.8983)" class="st5 st6 st7">37</text>
		</g>
	</g>
	<g>
		<defs>
			<rect id="SVGID_13_" x="-0.5" y="-20" width="360" height="216"/>
		</defs>
		<clipPath id="SVGID_14_">
			<use xlink:href="#SVGID_13_"  style="overflow:visible;"/>
		</clipPath>
		<g class="st9">
			<text transform="matrix(1 0 0 1 6.505 122.0245)" class="st5 st6 st7">38</text>
		</g>
	</g>
	<g>
		<defs>
			<rect id="SVGID_15_" x="-0.5" y="-20" width="360" height="216"/>
		</defs>
		<clipPath id="SVGID_16_">
			<use xlink:href="#SVGID_15_"  style="overflow:visible;"/>
		</clipPath>
		<g class="st10">
			<text transform="matrix(1 0 0 1 6.505 108.1506)" class="st5 st6 st7">39</text>
		</g>
	</g>
	<g>
		<defs>
			<rect id="SVGID_17_" x="-0.5" y="-20" width="360" height="216"/>
		</defs>
		<clipPath id="SVGID_18_">
			<use xlink:href="#SVGID_17_"  style="overflow:visible;"/>
		</clipPath>
		<g class="st11">
			<text transform="matrix(1 0 0 1 6.505 94.2768)" class="st5 st6 st7">40</text>
		</g>
	</g>
	<g>
		<defs>
			<rect id="SVGID_19_" x="-0.5" y="-20" width="360" height="216"/>
		</defs>
		<clipPath id="SVGID_20_">
			<use xlink:href="#SVGID_19_"  style="overflow:visible;"/>
		</clipPath>
		<g class="st12">
			<text transform="matrix(1 0 0 1 6.505 80.4029)" class="st5 st6 st7">41</text>
		</g>
	</g>
	<g>
		<defs>
			<rect id="SVGID_21_" x="-0.5" y="-20" width="360" height="216"/>
		</defs>
		<clipPath id="SVGID_22_">
			<use xlink:href="#SVGID_21_"  style="overflow:visible;"/>
		</clipPath>
		<g class="st13">
			<text transform="matrix(1 0 0 1 6.505 66.5291)" class="st5 st6 st7">42</text>
		</g>
	</g>
	<g>
		<defs>
			<rect id="SVGID_23_" x="-0.5" y="-20" width="360" height="216"/>
		</defs>
		<clipPath id="SVGID_24_">
			<use xlink:href="#SVGID_23_"  style="overflow:visible;"/>
		</clipPath>
		<g class="st14">
			<text transform="matrix(1 0 0 1 6.505 52.6552)" class="st5 st6 st7">43</text>
		</g>
	</g>
	<g>
		<defs>
			<rect id="SVGID_25_" x="-0.5" y="-20" width="360" height="216"/>
		</defs>
		<clipPath id="SVGID_26_">
			<use xlink:href="#SVGID_25_"  style="overflow:visible;"/>
		</clipPath>
		<g class="st15">
			<text transform="matrix(1 0 0 1 6.1717 39.448)" class="st5 st6 st7">44</text>
		</g>
	</g>
	<g>
		<defs>
			<rect id="SVGID_27_" x="-0.5" y="-20" width="360" height="216"/>
		</defs>
		<clipPath id="SVGID_28_">
			<use xlink:href="#SVGID_27_"  style="overflow:visible;"/>
		</clipPath>
		<g class="st16">
			<text transform="matrix(1 0 0 1 6.505 24.9075)" class="st5 st6 st7">45</text>
		</g>
	</g>
	<g>
		<defs>
			<rect id="SVGID_29_" x="-0.5" y="-20" width="360" height="216"/>
		</defs>
		<clipPath id="SVGID_30_">
			<use xlink:href="#SVGID_29_"  style="overflow:visible;"/>
		</clipPath>
		<g class="st17">
			<text transform="matrix(1 0 0 1 33.4921 160.6647)" class="st5 st6 st7">2003</text>
		</g>
	</g>
	<g>
		<defs>
			<rect id="SVGID_31_" x="-3.2" y="-20.3" width="360" height="216"/>
		</defs>
		<clipPath id="SVGID_32_">
			<use xlink:href="#SVGID_31_"  style="overflow:visible;"/>
		</clipPath>
		<g class="st18">
			<text transform="matrix(1 0 0 1 65.3263 160.9981)" class="st5 st6 st7">2004</text>
		</g>
	</g>
	<g>
		<defs>
			<rect id="SVGID_33_" x="-2.5" y="-20.3" width="360" height="216"/>
		</defs>
		<clipPath id="SVGID_34_">
			<use xlink:href="#SVGID_33_"  style="overflow:visible;"/>
		</clipPath>
		<g class="st19">
			<text transform="matrix(1 0 0 1 96.8272 160.6647)" class="st5 st6 st7">2005</text>
		</g>
	</g>
	<g>
		<defs>
			<rect id="SVGID_35_" x="-5.5" y="-20" width="360" height="216"/>
		</defs>
		<clipPath id="SVGID_36_">
			<use xlink:href="#SVGID_35_"  style="overflow:visible;"/>
		</clipPath>
		<g class="st20">
			<text transform="matrix(1 0 0 1 127.3282 160.9981)" class="st5 st6 st7">2006</text>
		</g>
	</g>
	<g>
		<defs>
			<rect id="SVGID_37_" x="-0.5" y="-20" width="360" height="216"/>
		</defs>
		<clipPath id="SVGID_38_">
			<use xlink:href="#SVGID_37_"  style="overflow:visible;"/>
		</clipPath>
		<g class="st21">
			<text transform="matrix(1 0 0 1 159.829 160.9981)" class="st5 st6 st7">2007</text>
		</g>
	</g>
	<g>
		<defs>
			<rect id="SVGID_39_" x="-0.5" y="-20" width="360" height="216"/>
		</defs>
		<clipPath id="SVGID_40_">
			<use xlink:href="#SVGID_39_"  style="overflow:visible;"/>
		</clipPath>
		<g class="st22">
			<text transform="matrix(1 0 0 1 188.9967 160.6647)" class="st5 st6 st7">2008</text>
		</g>
	</g>
	<g>
		<defs>
			<rect id="SVGID_41_" x="-0.5" y="-20" width="360" height="216"/>
		</defs>
		<clipPath id="SVGID_42_">
			<use xlink:href="#SVGID_41_"  style="overflow:visible;"/>
		</clipPath>
		<g class="st23">
			<text transform="matrix(1 0 0 1 220.4976 160.9981)" class="st5 st6 st7">2009</text>
		</g>
	</g>
	<g>
		<defs>
			<rect id="SVGID_43_" x="-0.5" y="-20" width="360" height="216"/>
		</defs>
		<clipPath id="SVGID_44_">
			<use xlink:href="#SVGID_43_"  style="overflow:visible;"/>
		</clipPath>
		<g class="st24">
			<text transform="matrix(1 0 0 1 251.9985 161.3314)" class="st5 st6 st7">2010</text>
		</g>
	</g>
	<g>
		<defs>
			<rect id="SVGID_45_" x="-0.5" y="-20" width="360" height="216"/>
		</defs>
		<clipPath id="SVGID_46_">
			<use xlink:href="#SVGID_45_"  style="overflow:visible;"/>
		</clipPath>
		<g class="st25">
			<text transform="matrix(1 0 0 1 283.8328 161.3314)" class="st5 st6 st7">2011</text>
		</g>
	</g>
	<g>
		<defs>
			<rect id="SVGID_47_" x="-0.5" y="-20" width="360" height="216"/>
		</defs>
		<clipPath id="SVGID_48_">
			<use xlink:href="#SVGID_47_"  style="overflow:visible;"/>
		</clipPath>
		<g class="st26">
			<text transform="matrix(1 0 0 1 314.3313 160.6647)" class="st5 st6 st7">2012</text>
		</g>
	</g>
	<g>
		<defs>
			<rect id="SVGID_49_" x="-0.5" y="-20" width="360" height="216"/>
		</defs>
		<clipPath id="SVGID_50_">
			<use xlink:href="#SVGID_49_"  style="overflow:visible;"/>
		</clipPath>
		<g class="st27">
			<text transform="matrix(1 0 0 1 109.5169 16.3333)" class="st5 st6 st28">Median Age at Divorce</text>
		</g>
	</g>
	<g>
		<defs>
			<rect id="SVGID_51_" x="-0.5" y="-20" width="360" height="216"/>
		</defs>
		<clipPath id="SVGID_52_">
			<use xlink:href="#SVGID_51_"  style="overflow:visible;"/>
		</clipPath>
		<line class="st29" x1="117.8" y1="178.3" x2="129.2" y2="178.3"/>
	</g>
	<g>
		<defs>
			<rect id="SVGID_53_" x="-0.5" y="-20" width="360" height="216"/>
		</defs>
		<clipPath id="SVGID_54_">
			<use xlink:href="#SVGID_53_"  style="overflow:visible;"/>
		</clipPath>
		<g class="st30">
			<text transform="matrix(1 0 0 1 133.4583 181.749)"><tspan x="0" y="0" class="st5 st6 st7">Hu</tspan><tspan x="11.5" y="0" class="st5 st6 st7">s</tspan><tspan x="16.5" y="0" class="st5 st6 st7">band  </tspan></text>
		</g>
	</g>
	<g>
		<defs>
			<rect id="SVGID_55_" x="-0.5" y="-20" width="360" height="216"/>
		</defs>
		<clipPath id="SVGID_56_">
			<use xlink:href="#SVGID_55_"  style="overflow:visible;"/>
		</clipPath>
		<line class="st31" x1="190.2" y1="179" x2="202.2" y2="179"/>
	</g>
	<g>
		<defs>
			<rect id="SVGID_57_" x="-0.5" y="-20" width="360" height="216"/>
		</defs>
		<clipPath id="SVGID_58_">
			<use xlink:href="#SVGID_57_"  style="overflow:visible;"/>
		</clipPath>
		<g class="st32">
			<text transform="matrix(1 0 0 1 205.3249 182.0823)"><tspan x="0" y="0" class="st5 st6 st7">W</tspan><tspan x="8" y="0" class="st5 st6 st7">i</tspan><tspan x="10" y="0" class="st5 st6 st7">f</tspan><tspan x="13" y="0" class="st5 st6 st7">e</tspan></text>
		</g>
	</g>
	<g>
		<defs>
			<polyline id="SVGID_59_" points="0,-20.5 0,196.5 360,196.5 360,-20.5 			"/>
		</defs>
		<clipPath id="SVGID_60_">
			<use xlink:href="#SVGID_59_"  style="overflow:visible;"/>
		</clipPath>
		<path class="st33" d="M351.5,195.3"/>
	</g>
</g>
<g id="Layer_2" class="st34">
</g>
</svg>
