<?xml version="1.0" encoding="utf-8"?>
<!-- Generator: Adobe Illustrator 20.1.0, SVG Export Plug-In . SVG Version: 6.00 Build 0)  -->
<svg version="1.1" id="Layer_1" xmlns="http://www.w3.org/2000/svg" xmlns:xlink="http://www.w3.org/1999/xlink" x="0px" y="0px"
	 viewBox="0 0 364 209" style="enable-background:new 0 0 364 209;" xml:space="preserve">
<style type="text/css">
	.st0{clip-path:url(#SVGID_2_);fill:none;stroke:#D9D9D8;stroke-linejoin:round;stroke-miterlimit:10;}
	.st1{clip-path:url(#SVGID_4_);fill:#5D9BD3;}
	.st2{clip-path:url(#SVGID_6_);fill:none;stroke:#D9D9D8;stroke-linejoin:round;stroke-miterlimit:10;}
	.st3{clip-path:url(#SVGID_8_);fill:none;stroke:#D9D9D8;stroke-linejoin:round;stroke-miterlimit:10;}
	.st4{clip-path:url(#SVGID_10_);fill:none;stroke:#D9D9D8;stroke-linejoin:round;stroke-miterlimit:10;}
	.st5{clip-path:url(#SVGID_12_);}
	.st6{fill:#595A5A;}
	.st7{font-family:'ArialMT';}
	.st8{font-size:9px;}
	.st9{clip-path:url(#SVGID_14_);}
	.st10{clip-path:url(#SVGID_16_);}
	.st11{clip-path:url(#SVGID_18_);}
	.st12{clip-path:url(#SVGID_20_);}
	.st13{clip-path:url(#SVGID_22_);}
	.st14{clip-path:url(#SVGID_24_);}
	.st15{clip-path:url(#SVGID_26_);}
	.st16{clip-path:url(#SVGID_28_);}
	.st17{clip-path:url(#SVGID_30_);}
	.st18{clip-path:url(#SVGID_32_);}
	.st19{clip-path:url(#SVGID_34_);}
	.st20{clip-path:url(#SVGID_36_);}
	.st21{font-size:12px;}
</style>
<g>
	<g>
		<defs>
			<rect id="SVGID_1_" x="9" width="360" height="216"/>
		</defs>
		<clipPath id="SVGID_2_">
			<use xlink:href="#SVGID_1_"  style="overflow:visible;"/>
		</clipPath>
		<path class="st0" d="M56.5,148.5"/>
	</g>
</g>
<g>
	<g>
		<defs>
			<polyline id="SVGID_3_" points="56,41 56,166 356,166 356,41 			"/>
		</defs>
		<clipPath id="SVGID_4_">
			<use xlink:href="#SVGID_3_"  style="overflow:visible;"/>
		</clipPath>
		<path class="st1" d="M314,94h24v72h-24V94z M254,99h24v67h-24V99z M194,81h24v85h-24V81z M135,131h24v35h-24V131z M75,62h24v104
			H75V62z"/>
	</g>
</g>
<g>
	<g>
		<defs>
			<rect id="SVGID_5_" x="9" width="360" height="216"/>
		</defs>
		<clipPath id="SVGID_6_">
			<use xlink:href="#SVGID_5_"  style="overflow:visible;"/>
		</clipPath>
		<path class="st2" d="M356.5,166.5"/>
	</g>
	<g>
		<defs>
			<rect id="SVGID_7_" x="9" width="360" height="216"/>
		</defs>
		<clipPath id="SVGID_8_">
			<use xlink:href="#SVGID_7_"  style="overflow:visible;"/>
		</clipPath>
		<path class="st3" d="M56.5,166.5"/>
	</g>
</g>
<g>
	<g>
		<defs>
			<rect id="SVGID_9_" x="9" width="360" height="216"/>
		</defs>
		<clipPath id="SVGID_10_">
			<use xlink:href="#SVGID_9_"  style="overflow:visible;"/>
		</clipPath>
		<path class="st4" d="M56.5,166.5"/>
	</g>
</g>
<g>
	<g>
		<defs>
			<rect id="SVGID_11_" x="9" width="360" height="216"/>
		</defs>
		<clipPath id="SVGID_12_">
			<use xlink:href="#SVGID_11_"  style="overflow:visible;"/>
		</clipPath>
		<g class="st5">
			<text transform="matrix(1 0 0 1 15.265 169.7722)" class="st6 st7 st8">110</text>
			<text transform="matrix(1 0 0 1 30.265 169.7722)" class="st6 st7 st8">,</text>
			<text transform="matrix(1 0 0 1 33.265 169.7722)" class="st6 st7 st8">000</text>
		</g>
	</g>
</g>
<g>
	<g>
		<defs>
			<rect id="SVGID_13_" x="9" width="360" height="216"/>
		</defs>
		<clipPath id="SVGID_14_">
			<use xlink:href="#SVGID_13_"  style="overflow:visible;"/>
		</clipPath>
		<g class="st9">
			<text transform="matrix(1 0 0 1 15.265 151.9344)" class="st6 st7 st8">112</text>
			<text transform="matrix(1 0 0 1 30.265 151.9344)" class="st6 st7 st8">,</text>
			<text transform="matrix(1 0 0 1 33.265 151.9344)" class="st6 st7 st8">000</text>
		</g>
	</g>
</g>
<g>
	<g>
		<defs>
			<rect id="SVGID_15_" x="9" width="360" height="216"/>
		</defs>
		<clipPath id="SVGID_16_">
			<use xlink:href="#SVGID_15_"  style="overflow:visible;"/>
		</clipPath>
		<g class="st10">
			<text transform="matrix(1 0 0 1 15.265 134.0966)" class="st6 st7 st8">114</text>
			<text transform="matrix(1 0 0 1 30.265 134.0966)" class="st6 st7 st8">,</text>
			<text transform="matrix(1 0 0 1 33.265 134.0966)" class="st6 st7 st8">000</text>
		</g>
	</g>
</g>
<g>
	<g>
		<defs>
			<rect id="SVGID_17_" x="9" width="360" height="216"/>
		</defs>
		<clipPath id="SVGID_18_">
			<use xlink:href="#SVGID_17_"  style="overflow:visible;"/>
		</clipPath>
		<g class="st11">
			<text transform="matrix(1 0 0 1 15.265 116.2587)" class="st6 st7 st8">116</text>
			<text transform="matrix(1 0 0 1 30.265 116.2587)" class="st6 st7 st8">,</text>
			<text transform="matrix(1 0 0 1 33.265 116.2587)" class="st6 st7 st8">000</text>
		</g>
	</g>
</g>
<g>
	<g>
		<defs>
			<rect id="SVGID_19_" x="9" width="360" height="216"/>
		</defs>
		<clipPath id="SVGID_20_">
			<use xlink:href="#SVGID_19_"  style="overflow:visible;"/>
		</clipPath>
		<g class="st12">
			<text transform="matrix(1 0 0 1 15.265 98.4209)" class="st6 st7 st8">118</text>
			<text transform="matrix(1 0 0 1 30.265 98.4209)" class="st6 st7 st8">,</text>
			<text transform="matrix(1 0 0 1 33.265 98.4209)" class="st6 st7 st8">000</text>
		</g>
	</g>
</g>
<g>
	<g>
		<defs>
			<rect id="SVGID_21_" x="9" width="360" height="216"/>
		</defs>
		<clipPath id="SVGID_22_">
			<use xlink:href="#SVGID_21_"  style="overflow:visible;"/>
		</clipPath>
		<g class="st13">
			<text transform="matrix(1 0 0 1 15.265 80.5832)" class="st6 st7 st8">120</text>
			<text transform="matrix(1 0 0 1 30.265 80.5832)" class="st6 st7 st8">,</text>
			<text transform="matrix(1 0 0 1 33.265 80.5832)" class="st6 st7 st8">000</text>
		</g>
	</g>
</g>
<g>
	<g>
		<defs>
			<rect id="SVGID_23_" x="9" width="360" height="216"/>
		</defs>
		<clipPath id="SVGID_24_">
			<use xlink:href="#SVGID_23_"  style="overflow:visible;"/>
		</clipPath>
		<g class="st14">
			<text transform="matrix(1 0 0 1 15.265 62.7453)" class="st6 st7 st8">122</text>
			<text transform="matrix(1 0 0 1 30.265 62.7453)" class="st6 st7 st8">,</text>
			<text transform="matrix(1 0 0 1 33.265 62.7453)" class="st6 st7 st8">000</text>
		</g>
	</g>
</g>
<g>
	<g>
		<defs>
			<rect id="SVGID_25_" x="9" width="360" height="216"/>
		</defs>
		<clipPath id="SVGID_26_">
			<use xlink:href="#SVGID_25_"  style="overflow:visible;"/>
		</clipPath>
		<g class="st15">
			<text transform="matrix(1 0 0 1 15.265 44.9075)" class="st6 st7 st8">124</text>
			<text transform="matrix(1 0 0 1 30.265 44.9075)" class="st6 st7 st8">,</text>
			<text transform="matrix(1 0 0 1 33.265 44.9075)" class="st6 st7 st8">000</text>
		</g>
	</g>
</g>
<g>
	<g>
		<defs>
			<rect id="SVGID_27_" x="9" width="360" height="216"/>
		</defs>
		<clipPath id="SVGID_28_">
			<use xlink:href="#SVGID_27_"  style="overflow:visible;"/>
		</clipPath>
		<g class="st16">
			<text transform="matrix(1 0 0 1 76.8448 180.9981)" class="st6 st7 st8">2008</text>
		</g>
	</g>
</g>
<g>
	<g>
		<defs>
			<rect id="SVGID_29_" x="9" width="360" height="216"/>
		</defs>
		<clipPath id="SVGID_30_">
			<use xlink:href="#SVGID_29_"  style="overflow:visible;"/>
		</clipPath>
		<g class="st17">
			<text transform="matrix(1 0 0 1 136.6759 180.9981)" class="st6 st7 st8">2009</text>
		</g>
	</g>
</g>
<g>
	<g>
		<defs>
			<rect id="SVGID_31_" x="9" width="360" height="216"/>
		</defs>
		<clipPath id="SVGID_32_">
			<use xlink:href="#SVGID_31_"  style="overflow:visible;"/>
		</clipPath>
		<g class="st18">
			<text transform="matrix(1 0 0 1 196.5071 180.9981)" class="st6 st7 st8">2010</text>
		</g>
	</g>
</g>
<g>
	<g>
		<defs>
			<rect id="SVGID_33_" x="9" width="360" height="216"/>
		</defs>
		<clipPath id="SVGID_34_">
			<use xlink:href="#SVGID_33_"  style="overflow:visible;"/>
		</clipPath>
		<g class="st19">
			<text transform="matrix(1 0 0 1 256.3382 180.9981)" class="st6 st7 st8">2011</text>
		</g>
	</g>
</g>
<g>
	<g>
		<defs>
			<rect id="SVGID_35_" x="9" width="360" height="216"/>
		</defs>
		<clipPath id="SVGID_36_">
			<use xlink:href="#SVGID_35_"  style="overflow:visible;"/>
		</clipPath>
		<g class="st20">
			<text transform="matrix(1 0 0 1 316.1694 180.9981)" class="st6 st7 st8">2012</text>
		</g>
	</g>
</g>
<text transform="matrix(1 0 0 1 124 23.6665)" class="st7 st21">Divorce Totals Over 5 Years</text>
</svg>
