<?xml version="1.0" encoding="utf-8"?>
<!-- Generator: Adobe Illustrator 20.1.0, SVG Export Plug-In . SVG Version: 6.00 Build 0)  -->
<svg version="1.1" id="Layer_1" xmlns="http://www.w3.org/2000/svg" xmlns:xlink="http://www.w3.org/1999/xlink" x="0px" y="0px"
	 viewBox="0 0 612 792" style="enable-background:new 0 0 612 792;" xml:space="preserve">
<style type="text/css">
	.st0{clip-path:url(#SVGID_2_);fill:none;stroke:#D9D9D8;stroke-linejoin:round;stroke-miterlimit:10;}
	.st1{clip-path:url(#SVGID_4_);fill:#5D9BD3;}
	.st2{clip-path:url(#SVGID_6_);fill:none;stroke:#D9D9D8;stroke-linejoin:round;stroke-miterlimit:10;}
	.st3{clip-path:url(#SVGID_8_);fill:none;stroke:#D9D9D8;stroke-linejoin:round;stroke-miterlimit:10;}
	.st4{clip-path:url(#SVGID_10_);}
	.st5{fill:#595A5A;}
	.st6{font-family:'Helvetica';}
	.st7{font-size:9px;}
	.st8{clip-path:url(#SVGID_12_);}
	.st9{clip-path:url(#SVGID_14_);}
	.st10{clip-path:url(#SVGID_16_);}
	.st11{clip-path:url(#SVGID_18_);}
	.st12{clip-path:url(#SVGID_20_);}
	.st13{clip-path:url(#SVGID_22_);}
	.st14{clip-path:url(#SVGID_24_);}
	.st15{clip-path:url(#SVGID_26_);}
	.st16{clip-path:url(#SVGID_28_);}
	.st17{clip-path:url(#SVGID_30_);}
	.st18{clip-path:url(#SVGID_32_);}
	.st19{clip-path:url(#SVGID_34_);}
	.st20{font-family:'MyriadPro-Regular';}
	.st21{font-size:12px;}
</style>
<g>
	<defs>
		<rect id="SVGID_1_" x="122" y="282" width="360" height="216"/>
	</defs>
	<clipPath id="SVGID_2_">
		<use xlink:href="#SVGID_1_"  style="overflow:visible;"/>
	</clipPath>
	<path class="st0" d="M469.5,323.5 M169.5,323.5 M469.5,341.5 M169.5,341.5 M469.5,358.5 M169.5,358.5 M469.5,376.5 M169.5,376.5
		 M469.5,394.5 M169.5,394.5 M469.5,412.5 M169.5,412.5 M469.5,430.5 M169.5,430.5"/>
</g>
<g>
	<defs>
		<polyline id="SVGID_3_" points="169,323 169,448 469,448 469,323 		"/>
	</defs>
	<clipPath id="SVGID_4_">
		<use xlink:href="#SVGID_3_"  style="overflow:visible;"/>
	</clipPath>
	<path class="st1" d="M427,376h24v72h-24V376z M367,381h24v67h-24V381z M307,363h24v85h-24V363z M248,413h24v35h-24V413z M188,344
		h24v104h-24V344z"/>
</g>
<g>
	<defs>
		<rect id="SVGID_5_" x="122" y="282" width="360" height="216"/>
	</defs>
	<clipPath id="SVGID_6_">
		<use xlink:href="#SVGID_5_"  style="overflow:visible;"/>
	</clipPath>
	<path class="st2" d="M469.5,448.5"/>
	<path class="st2" d="M169.5,448.5"/>
</g>
<g>
	<defs>
		<rect id="SVGID_7_" x="122" y="282" width="360" height="216"/>
	</defs>
	<clipPath id="SVGID_8_">
		<use xlink:href="#SVGID_7_"  style="overflow:visible;"/>
	</clipPath>
	<path class="st3" d="M469.5,448.5 M409.5,448.5 M349.5,451.5 M289.5,451.5 M229.5,448.5 M169.5,448.5"/>
</g>
<g>
	<defs>
		<rect id="SVGID_9_" x="122" y="282" width="360" height="216"/>
	</defs>
	<clipPath id="SVGID_10_">
		<use xlink:href="#SVGID_9_"  style="overflow:visible;"/>
	</clipPath>
	<g class="st4">
		<text transform="matrix(1 0 0 1 128.265 451.7722)"><tspan x="0" y="0" class="st5 st6 st7">110</tspan><tspan x="15" y="0" class="st5 st6 st7">,</tspan><tspan x="18" y="0" class="st5 st6 st7">000</tspan></text>
	</g>
</g>
<g>
	<defs>
		<rect id="SVGID_11_" x="122" y="282" width="360" height="216"/>
	</defs>
	<clipPath id="SVGID_12_">
		<use xlink:href="#SVGID_11_"  style="overflow:visible;"/>
	</clipPath>
	<g class="st8">
		<text transform="matrix(1 0 0 1 128.265 433.9344)"><tspan x="0" y="0" class="st5 st6 st7">112</tspan><tspan x="15" y="0" class="st5 st6 st7">,</tspan><tspan x="18" y="0" class="st5 st6 st7">000</tspan></text>
	</g>
</g>
<g>
	<defs>
		<rect id="SVGID_13_" x="122" y="282" width="360" height="216"/>
	</defs>
	<clipPath id="SVGID_14_">
		<use xlink:href="#SVGID_13_"  style="overflow:visible;"/>
	</clipPath>
	<g class="st9">
		<text transform="matrix(1 0 0 1 128.265 416.0966)"><tspan x="0" y="0" class="st5 st6 st7">114</tspan><tspan x="15" y="0" class="st5 st6 st7">,</tspan><tspan x="18" y="0" class="st5 st6 st7">000</tspan></text>
	</g>
</g>
<g>
	<defs>
		<rect id="SVGID_15_" x="122" y="282" width="360" height="216"/>
	</defs>
	<clipPath id="SVGID_16_">
		<use xlink:href="#SVGID_15_"  style="overflow:visible;"/>
	</clipPath>
	<g class="st10">
		<text transform="matrix(1 0 0 1 128.265 398.2587)"><tspan x="0" y="0" class="st5 st6 st7">116</tspan><tspan x="15" y="0" class="st5 st6 st7">,</tspan><tspan x="18" y="0" class="st5 st6 st7">000</tspan></text>
	</g>
</g>
<g>
	<defs>
		<rect id="SVGID_17_" x="122" y="282" width="360" height="216"/>
	</defs>
	<clipPath id="SVGID_18_">
		<use xlink:href="#SVGID_17_"  style="overflow:visible;"/>
	</clipPath>
	<g class="st11">
		<text transform="matrix(1 0 0 1 128.265 380.4209)"><tspan x="0" y="0" class="st5 st6 st7">118</tspan><tspan x="15" y="0" class="st5 st6 st7">,</tspan><tspan x="18" y="0" class="st5 st6 st7">000</tspan></text>
	</g>
</g>
<g>
	<defs>
		<rect id="SVGID_19_" x="122" y="282" width="360" height="216"/>
	</defs>
	<clipPath id="SVGID_20_">
		<use xlink:href="#SVGID_19_"  style="overflow:visible;"/>
	</clipPath>
	<g class="st12">
		<text transform="matrix(1 0 0 1 128.265 362.5832)"><tspan x="0" y="0" class="st5 st6 st7">120</tspan><tspan x="15" y="0" class="st5 st6 st7">,</tspan><tspan x="18" y="0" class="st5 st6 st7">000</tspan></text>
	</g>
</g>
<g>
	<defs>
		<rect id="SVGID_21_" x="122" y="282" width="360" height="216"/>
	</defs>
	<clipPath id="SVGID_22_">
		<use xlink:href="#SVGID_21_"  style="overflow:visible;"/>
	</clipPath>
	<g class="st13">
		<text transform="matrix(1 0 0 1 128.265 344.7453)"><tspan x="0" y="0" class="st5 st6 st7">122</tspan><tspan x="15" y="0" class="st5 st6 st7">,</tspan><tspan x="18" y="0" class="st5 st6 st7">000</tspan></text>
	</g>
</g>
<g>
	<defs>
		<rect id="SVGID_23_" x="122" y="282" width="360" height="216"/>
	</defs>
	<clipPath id="SVGID_24_">
		<use xlink:href="#SVGID_23_"  style="overflow:visible;"/>
	</clipPath>
	<g class="st14">
		<text transform="matrix(1 0 0 1 128.265 326.9075)"><tspan x="0" y="0" class="st5 st6 st7">124</tspan><tspan x="15" y="0" class="st5 st6 st7">,</tspan><tspan x="18" y="0" class="st5 st6 st7">000</tspan></text>
	</g>
</g>
<g>
	<defs>
		<rect id="SVGID_25_" x="122" y="282" width="360" height="216"/>
	</defs>
	<clipPath id="SVGID_26_">
		<use xlink:href="#SVGID_25_"  style="overflow:visible;"/>
	</clipPath>
	<g class="st15">
		<text transform="matrix(1 0 0 1 189.8448 462.9981)" class="st5 st6 st7">2008</text>
	</g>
</g>
<g>
	<defs>
		<rect id="SVGID_27_" x="122" y="282" width="360" height="216"/>
	</defs>
	<clipPath id="SVGID_28_">
		<use xlink:href="#SVGID_27_"  style="overflow:visible;"/>
	</clipPath>
	<g class="st16">
		<text transform="matrix(1 0 0 1 249.6759 462.9981)" class="st5 st6 st7">2009</text>
	</g>
</g>
<g>
	<defs>
		<rect id="SVGID_29_" x="122" y="282" width="360" height="216"/>
	</defs>
	<clipPath id="SVGID_30_">
		<use xlink:href="#SVGID_29_"  style="overflow:visible;"/>
	</clipPath>
	<g class="st17">
		<text transform="matrix(1 0 0 1 309.5071 462.9981)" class="st5 st6 st7">2010</text>
	</g>
</g>
<g>
	<defs>
		<rect id="SVGID_31_" x="122" y="282" width="360" height="216"/>
	</defs>
	<clipPath id="SVGID_32_">
		<use xlink:href="#SVGID_31_"  style="overflow:visible;"/>
	</clipPath>
	<g class="st18">
		<text transform="matrix(1 0 0 1 369.3382 462.9981)" class="st5 st6 st7">2011</text>
	</g>
</g>
<g>
	<defs>
		<rect id="SVGID_33_" x="122" y="282" width="360" height="216"/>
	</defs>
	<clipPath id="SVGID_34_">
		<use xlink:href="#SVGID_33_"  style="overflow:visible;"/>
	</clipPath>
	<g class="st19">
		<text transform="matrix(1 0 0 1 429.1694 462.9981)" class="st5 st6 st7">2012</text>
	</g>
</g>
<g>
	<defs>
		<rect id="SVGID_35_" x="122" y="282" width="360" height="216"/>
	</defs>
	<clipPath id="SVGID_36_">
		<use xlink:href="#SVGID_35_"  style="overflow:visible;"/>
	</clipPath>
</g>
<g>
	<defs>
		<rect id="SVGID_37_" x="122" y="282" width="360" height="216"/>
	</defs>
	<clipPath id="SVGID_38_">
		<use xlink:href="#SVGID_37_"  style="overflow:visible;"/>
	</clipPath>
</g>
<g>
	<defs>
		<rect id="SVGID_39_" x="122" y="282" width="360" height="216"/>
	</defs>
	<clipPath id="SVGID_40_">
		<use xlink:href="#SVGID_39_"  style="overflow:visible;"/>
	</clipPath>
</g>
<g>
	<defs>
		<polyline id="SVGID_41_" points="482,499 482,282 122,282 122,499 		"/>
	</defs>
	<clipPath id="SVGID_42_">
		<use xlink:href="#SVGID_41_"  style="overflow:visible;"/>
	</clipPath>
</g>
<text transform="matrix(1 0 0 1 237 305.6665)" class="st20 st21">Divorce Totals Over 5 Years</text>
</svg>
