<?xml version="1.0" encoding="utf-8"?>
<!-- Generator: Adobe Illustrator 20.1.0, SVG Export Plug-In . SVG Version: 6.00 Build 0)  -->
<svg version="1.1" id="Layer_1" xmlns="http://www.w3.org/2000/svg" xmlns:xlink="http://www.w3.org/1999/xlink" x="0px" y="0px"
	 viewBox="0 0 1024 512" style="enable-background:new 0 0 1024 512;" xml:space="preserve">
<style type="text/css">
	.st0{opacity:0;clip-path:url(#SVGID_2_);fill:#FFFFFF;}
	.st1{clip-path:url(#SVGID_2_);fill:#FFFFFF;}
	.st2{clip-path:url(#SVGID_4_);fill:none;stroke:#D9D9D9;stroke-linejoin:round;stroke-miterlimit:10;}
	.st3{clip-path:url(#SVGID_6_);fill:none;stroke:#D9D9D9;stroke-linejoin:round;stroke-miterlimit:10;}
	
		.st4{clip-path:url(#SVGID_8_);fill:none;stroke:#12FF56;stroke-width:2;stroke-linecap:round;stroke-linejoin:round;stroke-miterlimit:10;}
	.st5{clip-path:url(#SVGID_10_);}
	.st6{fill:#595959;}
	.st7{font-family:'Helvetica';}
	.st8{font-size:9px;}
	.st9{clip-path:url(#SVGID_12_);}
	.st10{clip-path:url(#SVGID_14_);}
	.st11{clip-path:url(#SVGID_16_);}
	.st12{clip-path:url(#SVGID_18_);}
	.st13{clip-path:url(#SVGID_20_);}
	.st14{clip-path:url(#SVGID_22_);}
	.st15{clip-path:url(#SVGID_24_);}
	.st16{clip-path:url(#SVGID_26_);}
	.st17{clip-path:url(#SVGID_28_);}
	.st18{clip-path:url(#SVGID_30_);}
	.st19{clip-path:url(#SVGID_32_);}
	.st20{clip-path:url(#SVGID_34_);}
	.st21{clip-path:url(#SVGID_36_);}
	.st22{clip-path:url(#SVGID_38_);}
	.st23{clip-path:url(#SVGID_40_);}
	.st24{clip-path:url(#SVGID_42_);}
	.st25{clip-path:url(#SVGID_44_);}
	.st26{clip-path:url(#SVGID_46_);}
	.st27{clip-path:url(#SVGID_48_);}
	.st28{font-size:14px;}
	.st29{letter-spacing:-1;}
	
		.st30{clip-path:url(#SVGID_50_);fill:none;stroke:#12FF56;stroke-width:2;stroke-linecap:round;stroke-linejoin:round;stroke-miterlimit:10;}
	.st31{clip-path:url(#SVGID_52_);}
</style>
<g>
	<defs>
		<rect id="SVGID_1_" x="271.3" y="145" width="360" height="217"/>
	</defs>
	<clipPath id="SVGID_2_">
		<use xlink:href="#SVGID_1_"  style="overflow:visible;"/>
	</clipPath>
	<rect x="271.3" y="145" class="st0" width="360" height="217"/>
	<rect x="271.3" y="146" class="st1" width="360" height="215"/>
</g>
<g>
	<defs>
		<rect id="SVGID_3_" x="271" y="145" width="360" height="216"/>
	</defs>
	<clipPath id="SVGID_4_">
		<use xlink:href="#SVGID_3_"  style="overflow:visible;"/>
	</clipPath>
	<path class="st2" d="M618.5,186.5 M318.5,186.5 M618.5,200.5 M318.5,200.5 M618.5,214.5 M318.5,214.5 M618.5,227.5 M318.5,227.5
		 M618.5,241.5 M318.5,241.5 M618.5,255.5 M318.5,255.5 M618.5,269.5 M318.5,269.5 M618.5,283.5 M318.5,283.5 M618.5,297.5
		 M318.5,297.5"/>
</g>
<g>
	<defs>
		<rect id="SVGID_5_" x="271" y="145" width="360" height="216"/>
	</defs>
	<clipPath id="SVGID_6_">
		<use xlink:href="#SVGID_5_"  style="overflow:visible;"/>
	</clipPath>
	<path class="st3" d="M618.5,311.5"/>
	<path class="st3" d="M318.5,311.5"/>
</g>
<g>
	<defs>
		<rect id="SVGID_7_" x="318" y="186" width="300" height="125"/>
	</defs>
	<clipPath id="SVGID_8_">
		<use xlink:href="#SVGID_7_"  style="overflow:visible;"/>
	</clipPath>
	<polyline class="st4" points="335,205 369,213 402,220 435,222 468,227 502,232 535,228 568,230 601,229 	"/>
</g>
<g>
	<defs>
		<rect id="SVGID_9_" x="271" y="145" width="360" height="216"/>
	</defs>
	<clipPath id="SVGID_10_">
		<use xlink:href="#SVGID_9_"  style="overflow:visible;"/>
	</clipPath>
	<g class="st5">
		<text transform="matrix(1 0 0 1 305.03 314.7722)" class="st6 st7 st8">0</text>
	</g>
</g>
<g>
	<defs>
		<rect id="SVGID_11_" x="271" y="145" width="360" height="216"/>
	</defs>
	<clipPath id="SVGID_12_">
		<use xlink:href="#SVGID_11_"  style="overflow:visible;"/>
	</clipPath>
	<g class="st9">
		<text transform="matrix(1 0 0 1 282.7701 300.8983)"><tspan x="0" y="0" class="st6 st7 st8">20</tspan><tspan x="10" y="0" class="st6 st7 st8">,</tspan><tspan x="13" y="0" class="st6 st7 st8">000</tspan></text>
	</g>
</g>
<g>
	<defs>
		<rect id="SVGID_13_" x="271" y="145" width="360" height="216"/>
	</defs>
	<clipPath id="SVGID_14_">
		<use xlink:href="#SVGID_13_"  style="overflow:visible;"/>
	</clipPath>
	<g class="st10">
		<text transform="matrix(1 0 0 1 282.7701 287.0245)"><tspan x="0" y="0" class="st6 st7 st8">40</tspan><tspan x="10" y="0" class="st6 st7 st8">,</tspan><tspan x="13" y="0" class="st6 st7 st8">000</tspan></text>
	</g>
</g>
<g>
	<defs>
		<rect id="SVGID_15_" x="271" y="145" width="360" height="216"/>
	</defs>
	<clipPath id="SVGID_16_">
		<use xlink:href="#SVGID_15_"  style="overflow:visible;"/>
	</clipPath>
	<g class="st11">
		<text transform="matrix(1 0 0 1 282.7701 273.1506)"><tspan x="0" y="0" class="st6 st7 st8">60</tspan><tspan x="10" y="0" class="st6 st7 st8">,</tspan><tspan x="13" y="0" class="st6 st7 st8">000</tspan></text>
	</g>
</g>
<g>
	<defs>
		<rect id="SVGID_17_" x="271" y="145" width="360" height="216"/>
	</defs>
	<clipPath id="SVGID_18_">
		<use xlink:href="#SVGID_17_"  style="overflow:visible;"/>
	</clipPath>
	<g class="st12">
		<text transform="matrix(1 0 0 1 282.7701 259.2768)"><tspan x="0" y="0" class="st6 st7 st8">80</tspan><tspan x="10" y="0" class="st6 st7 st8">,</tspan><tspan x="13" y="0" class="st6 st7 st8">000</tspan></text>
	</g>
</g>
<g>
	<defs>
		<rect id="SVGID_19_" x="271" y="145" width="360" height="216"/>
	</defs>
	<clipPath id="SVGID_20_">
		<use xlink:href="#SVGID_19_"  style="overflow:visible;"/>
	</clipPath>
	<g class="st13">
		<text transform="matrix(1 0 0 1 277.265 245.4029)"><tspan x="0" y="0" class="st6 st7 st8">100</tspan><tspan x="15" y="0" class="st6 st7 st8">,</tspan><tspan x="18" y="0" class="st6 st7 st8">000</tspan></text>
	</g>
</g>
<g>
	<defs>
		<rect id="SVGID_21_" x="271" y="145" width="360" height="216"/>
	</defs>
	<clipPath id="SVGID_22_">
		<use xlink:href="#SVGID_21_"  style="overflow:visible;"/>
	</clipPath>
	<g class="st14">
		<text transform="matrix(1 0 0 1 277.265 231.5291)"><tspan x="0" y="0" class="st6 st7 st8">120</tspan><tspan x="15" y="0" class="st6 st7 st8">,</tspan><tspan x="18" y="0" class="st6 st7 st8">000</tspan></text>
	</g>
</g>
<g>
	<defs>
		<rect id="SVGID_23_" x="271" y="145" width="360" height="216"/>
	</defs>
	<clipPath id="SVGID_24_">
		<use xlink:href="#SVGID_23_"  style="overflow:visible;"/>
	</clipPath>
	<g class="st15">
		<text transform="matrix(1 0 0 1 277.265 217.6552)"><tspan x="0" y="0" class="st6 st7 st8">140</tspan><tspan x="15" y="0" class="st6 st7 st8">,</tspan><tspan x="18" y="0" class="st6 st7 st8">000</tspan></text>
	</g>
</g>
<g>
	<defs>
		<rect id="SVGID_25_" x="271" y="145" width="360" height="216"/>
	</defs>
	<clipPath id="SVGID_26_">
		<use xlink:href="#SVGID_25_"  style="overflow:visible;"/>
	</clipPath>
	<g class="st16">
		<text transform="matrix(1 0 0 1 277.265 203.7813)"><tspan x="0" y="0" class="st6 st7 st8">160</tspan><tspan x="15" y="0" class="st6 st7 st8">,</tspan><tspan x="18" y="0" class="st6 st7 st8">000</tspan></text>
	</g>
</g>
<g>
	<defs>
		<rect id="SVGID_27_" x="271" y="145" width="360" height="216"/>
	</defs>
	<clipPath id="SVGID_28_">
		<use xlink:href="#SVGID_27_"  style="overflow:visible;"/>
	</clipPath>
	<g class="st17">
		<text transform="matrix(1 0 0 1 277.265 189.9075)"><tspan x="0" y="0" class="st6 st7 st8">180</tspan><tspan x="15" y="0" class="st6 st7 st8">,</tspan><tspan x="18" y="0" class="st6 st7 st8">000</tspan></text>
	</g>
</g>
<g>
	<defs>
		<rect id="SVGID_29_" x="271" y="145" width="360" height="216"/>
	</defs>
	<clipPath id="SVGID_30_">
		<use xlink:href="#SVGID_29_"  style="overflow:visible;"/>
	</clipPath>
	<g class="st18">
		<text transform="matrix(1 0 0 1 322.1798 327.3314)" class="st6 st7 st8">2003</text>
	</g>
</g>
<g>
	<defs>
		<rect id="SVGID_31_" x="271" y="145" width="360" height="216"/>
	</defs>
	<clipPath id="SVGID_32_">
		<use xlink:href="#SVGID_31_"  style="overflow:visible;"/>
	</clipPath>
	<g class="st19">
		<text transform="matrix(1 0 0 1 350.4194 326.9981)" class="st6 st7 st8">2004</text>
	</g>
</g>
<g>
	<defs>
		<rect id="SVGID_33_" x="271" y="145" width="360" height="216"/>
	</defs>
	<clipPath id="SVGID_34_">
		<use xlink:href="#SVGID_33_"  style="overflow:visible;"/>
	</clipPath>
	<g class="st20">
		<text transform="matrix(1 0 0 1 379.9922 326.3314)" class="st6 st7 st8">2005</text>
	</g>
</g>
<g>
	<defs>
		<rect id="SVGID_35_" x="271" y="145" width="360" height="216"/>
	</defs>
	<clipPath id="SVGID_36_">
		<use xlink:href="#SVGID_35_"  style="overflow:visible;"/>
	</clipPath>
	<g class="st21">
		<text transform="matrix(1 0 0 1 411.2318 326.3314)" class="st6 st7 st8">2006</text>
	</g>
</g>
<g>
	<defs>
		<rect id="SVGID_37_" x="271" y="145" width="360" height="216"/>
	</defs>
	<clipPath id="SVGID_38_">
		<use xlink:href="#SVGID_37_"  style="overflow:visible;"/>
	</clipPath>
	<g class="st22">
		<text transform="matrix(1 0 0 1 441.8047 326.6647)" class="st6 st7 st8">2007</text>
	</g>
</g>
<g>
	<defs>
		<rect id="SVGID_39_" x="271" y="145" width="360" height="216"/>
	</defs>
	<clipPath id="SVGID_40_">
		<use xlink:href="#SVGID_39_"  style="overflow:visible;"/>
	</clipPath>
	<g class="st23">
		<text transform="matrix(1 0 0 1 471.7108 326.6647)" class="st6 st7 st8">2008</text>
	</g>
</g>
<g>
	<defs>
		<rect id="SVGID_41_" x="271" y="145" width="360" height="216"/>
	</defs>
	<clipPath id="SVGID_42_">
		<use xlink:href="#SVGID_41_"  style="overflow:visible;"/>
	</clipPath>
	<g class="st24">
		<text transform="matrix(1 0 0 1 502.6172 326.6647)" class="st6 st7 st8">2009</text>
	</g>
</g>
<g>
	<defs>
		<rect id="SVGID_43_" x="271" y="145" width="360" height="216"/>
	</defs>
	<clipPath id="SVGID_44_">
		<use xlink:href="#SVGID_43_"  style="overflow:visible;"/>
	</clipPath>
	<g class="st25">
		<text transform="matrix(1 0 0 1 532.19 326.6647)" class="st6 st7 st8">2010</text>
	</g>
</g>
<g>
	<defs>
		<rect id="SVGID_45_" x="271" y="145" width="360" height="216"/>
	</defs>
	<clipPath id="SVGID_46_">
		<use xlink:href="#SVGID_45_"  style="overflow:visible;"/>
	</clipPath>
	<g class="st26">
		<text transform="matrix(1 0 0 1 565.7628 326.3314)" class="st6 st7 st8">2011</text>
	</g>
</g>
<g>
	<defs>
		<rect id="SVGID_47_" x="272.3" y="145.3" width="360" height="216"/>
	</defs>
	<clipPath id="SVGID_48_">
		<use xlink:href="#SVGID_47_"  style="overflow:visible;"/>
	</clipPath>
	<g class="st27">
		<text transform="matrix(1 0 0 1 400.3333 169.3333)" class="st6 st7 st28 st29">Divorce Rates By Year</text>
	</g>
</g>
<g>
	<defs>
		<rect id="SVGID_49_" x="271" y="145" width="360" height="216"/>
	</defs>
	<clipPath id="SVGID_50_">
		<use xlink:href="#SVGID_49_"  style="overflow:visible;"/>
	</clipPath>
	<line class="st30" x1="432" y1="344" x2="452" y2="344"/>
</g>
<g>
	<defs>
		<rect id="SVGID_51_" x="271" y="145" width="360" height="216"/>
	</defs>
	<clipPath id="SVGID_52_">
		<use xlink:href="#SVGID_51_"  style="overflow:visible;"/>
	</clipPath>
	<g class="st31">
		<text transform="matrix(1 0 0 1 453.495 347.749)"><tspan x="0" y="0" class="st6 st7 st8">T</tspan><tspan x="5" y="0" class="st6 st7 st8">o</tspan><tspan x="10" y="0" class="st6 st7 st8">t</tspan><tspan x="13" y="0" class="st6 st7 st8">al</tspan></text>
	</g>
</g>
<g>
	<defs>
		<rect id="SVGID_53_" x="271" y="145" width="360" height="217"/>
	</defs>
	<clipPath id="SVGID_54_">
		<use xlink:href="#SVGID_53_"  style="overflow:visible;"/>
	</clipPath>
</g>
<g>
	<text transform="matrix(1 0 0 1 593.6663 326.6664)" class="st6 st7 st8">2012</text>
</g>
</svg>
